<svg xmlns="http://www.w3.org/2000/svg" width="138" height="32" viewBox="0 0 138 32">
    <defs>
        <linearGradient id="a" x1="50%" x2="50%" y1="0%" y2="100%">
            <stop offset="0%" stop-color="#76CDD8"/>
            <stop offset="100%" stop-color="#E2F86A"/>
        </linearGradient>
    </defs>
    <g fill="none" fill-rule="evenodd">
        <path fill="#FFF" d="M45.976 22L43.368 9.04h2.08l1.712 9.168 1.616-9.168h2.128L48.296 22h-2.32zm6.573 0V9.04h2.336V22H52.55zm4.59 0V9.04h3.056c3.152 0 4.112 1.264 4.112 4.032v4.72c0 2.848-.976 4.208-4.016 4.208h-3.152zm2.352-1.648h.736c1.616 0 1.68-.864 1.68-2.48v-4.96c0-1.552-.16-2.192-1.712-2.192h-.704v9.632zM66.304 22V9.04h5.44v1.664h-3.088v3.728h2.432v1.648h-2.432v4.304h3.12V22h-5.472zm10.637.176c-2.8 0-3.744-1.616-3.744-4.24v-4.864c0-2.624.96-4.176 3.744-4.176 2.768 0 3.728 1.552 3.728 4.176v4.864c0 2.608-.96 4.24-3.728 4.24zm0-1.744c1.152 0 1.328-.864 1.328-1.936v-5.968c0-1.088-.176-1.904-1.328-1.904-1.152 0-1.344.816-1.344 1.904v5.968c0 1.072.176 1.936 1.344 1.936zm13.355 1.744c-2.848 0-3.696-1.792-3.696-4.32v-4.624c0-2.656.848-4.336 3.696-4.336 2.656 0 3.504 1.472 3.504 3.728v1.088h-2.272v-1.12c0-1.088-.016-1.968-1.216-1.968-1.216 0-1.328.928-1.328 2.112v5.616c0 1.408.288 2.08 1.328 2.08 1.168 0 1.216-.912 1.216-2.064V17.2H93.8v1.04c0 2.288-.768 3.936-3.504 3.936zm8.941 0c-2.8 0-3.744-1.616-3.744-4.24v-4.864c0-2.624.96-4.176 3.744-4.176 2.768 0 3.728 1.552 3.728 4.176v4.864c0 2.608-.96 4.24-3.728 4.24zm0-1.744c1.152 0 1.328-.864 1.328-1.936v-5.968c0-1.088-.176-1.904-1.328-1.904-1.152 0-1.344.816-1.344 1.904v5.968c0 1.072.176 1.936 1.344 1.936zm9.278 1.744c-2.912 0-3.648-1.648-3.648-4.368V9.04h2.304v9.04c0 1.232.144 2.336 1.344 2.336 1.216 0 1.36-1.104 1.36-2.336V9.04h2.288v8.768c0 2.72-.752 4.368-3.648 4.368zm5.757-.176V9.04h3.12c2.592 0 4.064.832 4.064 3.44 0 1.552-.384 2.64-1.6 3.136L121.664 22h-2.368l-1.552-5.936h-1.12V22h-2.352zm2.352-7.408h.752c1.36 0 1.856-.592 1.856-1.984 0-1.312-.368-1.952-1.728-1.952h-.88v3.936zm10.11 7.584c-2.369 0-3.489-1.376-3.585-3.952l2.032-.4c.064 1.536.432 2.528 1.472 2.528.752 0 1.072-.512 1.072-1.216 0-1.12-.576-1.744-1.424-2.48l-1.632-1.424c-.928-.8-1.504-1.696-1.504-3.136 0-2.048 1.28-3.2 3.344-3.2 2.432 0 3.12 1.632 3.248 3.52l-2.032.352c-.048-1.216-.224-2.128-1.264-2.128-.704 0-1.088.528-1.088 1.216 0 .88.368 1.36 1.056 1.952l1.616 1.424c1.056.912 1.936 2.048 1.936 3.76 0 1.872-1.312 3.184-3.248 3.184zm4.893-.176V9.04h5.44v1.664h-3.088v3.728h2.432v1.648h-2.432v4.304h3.12V22h-5.472z"/>
        <path fill="url(#a)" fill-rule="nonzero" d="M16 32C7.163 32 0 24.837 0 16S7.163 0 16 0s16 7.163 16 16-7.163 16-16 16zm0-2c7.732 0 14-6.268 14-14S23.732 2 16 2 2 8.268 2 16s6.268 14 14 14zm6.752-13.168l-9.197 6.132A1 1 0 0 1 12 22.13V9.87a1 1 0 0 1 1.555-.833l9.197 6.132a1 1 0 0 1 0 1.664z"/>
    </g>
</svg>
